<mxfile host="app.diagrams.net" modified="2024-05-17T07:33:41.972Z" agent="Mozilla/5.0 (Windows NT 10.0; Win64; x64) AppleWebKit/537.36 (KHTML, like Gecko) Chrome/123.0.0.0 Safari/537.36" version="24.4.3" etag="MVOv7JVyLnYRADRM9Oel" type="github">
  <diagram name="Trang-1" id="7e3ao1kUVVrF3xyQ3kNb">
    <mxGraphModel>
      <root>
        <mxCell id="0" />
        <mxCell id="1" parent="0" />
      </root>
    </mxGraphModel>
  </diagram>
</mxfile>
